<?xml version="1.0" standalone="no"?>
<!DOCTYPE svg PUBLIC "-//W3C//DTD SVG 20010904//EN"
 "http://www.w3.org/TR/2001/REC-SVG-20010904/DTD/svg10.dtd">
<svg version="1.0" xmlns="http://www.w3.org/2000/svg"
 width="432.000000pt" height="432.000000pt" viewBox="0 0 432.000000 432.000000"
 preserveAspectRatio="xMidYMid meet">
<metadata>
Created by potrace 1.14, written by Peter Selinger 2001-2017
</metadata>
<g transform="translate(0.000000,432.000000) scale(0.100000,-0.100000)"
fill="#000000" stroke="none">
<path d="M0 2160 l0 -2160 2160 0 2160 0 0 86 c0 65 -4 89 -16 101 -10 11 -14
25 -10 42 8 32 15 889 22 2640 l5 1323 -20 15 c-26 18 -27 30 -1 38 15 5 20
15 20 41 l0 34 -2160 0 -2160 0 0 -2160z m4168 1988 c14 -14 17 -134 3 -142
-5 -3 -12 16 -16 42 -4 26 -16 57 -27 69 -11 12 -17 26 -13 32 8 15 38 14 53
-1z m21 -814 c1 -329 2 -606 2 -614 0 -8 2 -550 5 -1203 7 -1215 6 -1257 -30
-1286 -16 -14 62 -13 -1963 -12 -1007 0 -1845 -2 -1862 -5 -37 -8 -57 7 -66
47 -4 16 -15 35 -26 43 -17 12 -18 15 -4 26 8 7 25 10 39 6 15 -4 28 0 36 9
10 12 8 18 -11 35 -13 10 -30 19 -38 20 -11 0 -13 26 -7 153 3 83 6 159 7 167
1 44 11 80 23 80 15 0 31 64 21 80 -3 5 -1 18 4 27 10 17 10 17 11 -1 0 -17 2
-18 18 -4 9 9 22 13 29 11 6 -2 13 6 16 19 3 15 5 11 6 -14 0 -20 7 -39 14
-42 9 -5 9 -7 0 -12 -13 -6 -18 -44 -6 -44 4 0 17 10 30 22 13 12 23 17 23 11
0 -6 -7 -16 -15 -23 -22 -18 -18 -30 10 -30 18 0 25 5 25 20 0 15 7 20 25 20
23 0 24 2 13 20 -8 12 -24 20 -43 21 -16 0 -24 3 -17 6 6 2 12 12 13 21 0 11
2 12 6 5 2 -7 13 -13 24 -13 31 0 59 -31 59 -67 0 -26 4 -33 20 -33 15 0 20 7
20 25 0 15 8 29 21 36 15 7 18 14 10 18 -7 5 -2 12 15 21 14 8 30 23 35 33 8
14 13 16 25 6 8 -7 14 -7 14 -1 0 15 38 3 44 -14 3 -8 12 -14 21 -14 8 0 15
-7 15 -16 0 -12 6 -15 23 -9 12 4 36 8 52 10 17 2 64 11 107 20 61 12 117 14
285 10 229 -6 273 -12 309 -46 l24 -22 0 32 c0 26 3 32 16 27 9 -3 27 -9 40
-12 13 -3 24 -10 24 -15 0 -5 18 -9 40 -9 29 0 40 4 40 15 0 18 4 18 48 6 20
-6 32 -6 32 0 0 5 36 9 80 9 47 0 80 -4 80 -10 0 -14 77 -13 82 1 6 18 78 2
78 -16 0 -11 12 -15 40 -15 l40 0 0 45 c0 32 4 45 14 45 14 0 26 -29 26 -67 0
-15 6 -23 18 -23 20 0 54 20 35 20 -7 0 -13 12 -13 26 0 14 4 23 9 20 5 -3 14
1 21 9 17 20 37 19 44 -2 3 -10 4 -82 2 -159 -6 -229 12 -265 136 -277 53 -5
59 -3 77 19 18 23 18 28 4 80 -16 62 -19 113 -15 246 2 88 16 123 45 112 16
-6 53 -65 49 -78 -2 -5 -5 -63 -7 -130 -2 -66 -6 -133 -10 -147 -9 -35 9 -45
23 -14 7 14 16 25 21 25 9 0 21 -47 21 -85 0 -39 67 -39 198 1 18 5 22 3 22
-17 1 -27 22 -59 39 -59 6 0 15 10 20 23 10 25 -3 47 -27 47 -17 0 -41 28 -42
50 0 8 -11 36 -25 62 -17 32 -25 63 -25 97 0 78 21 201 37 217 33 33 89 -41
80 -105 -3 -20 -1 -83 4 -141 5 -58 9 -115 9 -127 0 -13 13 -31 33 -45 27 -20
44 -23 119 -23 82 0 114 8 92 23 -20 13 -53 156 -53 227 0 90 -10 191 -22 232
-7 21 -26 42 -58 63 -79 50 -76 90 8 98 l52 5 60 -62 c56 -56 61 -64 55 -94
-14 -66 -17 -225 -7 -297 6 -41 12 -81 13 -87 1 -10 4 -10 16 -1 12 10 19 7
38 -17 13 -17 26 -37 29 -47 7 -21 26 -28 99 -34 34 -3 86 -12 117 -21 l56
-15 106 51 c58 28 114 51 124 51 33 0 46 16 39 45 -7 26 -9 27 -51 21 -42 -7
-45 -5 -59 23 -9 16 -16 43 -16 59 0 24 7 32 40 47 61 28 68 41 31 62 -18 11
-39 35 -49 58 -51 119 -66 139 -120 166 -63 31 -87 52 -79 72 19 49 170 7 242
-67 54 -56 71 -114 62 -215 -8 -87 5 -181 26 -193 10 -5 18 -17 19 -26 2 -23
26 208 37 357 1 10 4 12 11 5 6 -6 15 -121 21 -260 11 -268 15 -334 22 -340
15 -15 38 985 67 2816 6 388 13 716 16 730 17 72 22 -64 23 -616z m-569 296
c19 -1 69 1 110 5 65 6 82 4 123 -15 49 -22 67 -48 67 -95 0 -13 -9 -30 -19
-37 -11 -8 -25 -26 -32 -40 -6 -15 -24 -32 -40 -38 -16 -7 -31 -20 -34 -30 -8
-24 -91 -100 -110 -100 -31 0 -13 38 36 76 28 21 61 49 72 62 12 12 34 35 50
51 37 40 38 97 1 111 -14 6 -168 10 -363 10 -288 0 -340 2 -351 15 -10 12 -9
16 8 22 18 7 384 9 482 3z m-426 -192 c19 -32 19 -203 -1 -242 -24 -46 -34
-18 -39 109 -6 152 5 188 40 133z m-2348 -133 c9 -13 29 -27 45 -30 38 -9 44
-19 45 -90 0 -33 2 -134 3 -225 1 -93 7 -179 13 -197 10 -27 9 -39 -5 -68 -10
-22 -24 -35 -36 -35 -17 0 -19 12 -24 178 -3 97 -4 206 -3 242 3 73 -9 150
-27 174 -9 11 -46 18 -142 27 -71 7 -147 11 -168 10 -28 -1 -38 2 -35 11 5 13
83 20 251 25 61 1 69 -1 83 -22z m2808 -69 c7 -27 86 -86 115 -86 23 0 111
-68 111 -86 0 -7 12 -24 26 -37 42 -39 67 -119 71 -230 4 -84 2 -103 -15 -131
-10 -18 -22 -49 -26 -70 -4 -21 -19 -50 -34 -64 -15 -15 -34 -40 -42 -57 -10
-21 -24 -31 -43 -33 -38 -5 -35 14 12 70 27 33 41 61 46 93 3 26 15 55 26 66
15 15 19 36 22 119 3 94 2 103 -20 126 -13 14 -23 34 -23 44 0 11 -16 35 -35
54 -19 20 -35 40 -35 45 0 6 -15 18 -32 27 -18 9 -39 25 -46 35 -7 11 -22 19
-32 19 -10 0 -41 5 -68 12 -41 9 -51 16 -55 35 -5 29 27 73 53 73 11 0 20 -10
24 -24z m-964 -56 c51 -26 69 -54 70 -110 1 -111 -29 -175 -66 -138 -15 14
-15 19 1 51 12 27 15 48 10 79 -14 82 -20 90 -67 87 -68 -3 -78 0 -78 20 0 36
70 42 130 11z m565 -307 c44 -46 45 -50 40 -92 -9 -58 -14 -70 -37 -82 -14 -7
-23 -7 -33 1 -12 10 -11 17 2 46 24 50 9 85 -42 102 -58 19 -62 28 -24 51 19
12 37 21 41 21 3 0 27 -21 53 -47z m-1811 -24 c120 -16 259 -80 271 -127 3
-12 16 -27 29 -32 27 -10 86 -121 86 -161 0 -13 7 -37 16 -54 12 -23 16 -80
19 -280 9 -479 13 -549 31 -562 9 -7 22 -9 28 -6 6 4 40 6 75 4 46 -2 77 -10
115 -30 l51 -28 1 -74 c1 -54 -4 -84 -17 -111 -25 -49 -51 -42 -51 12 0 3 3
26 6 53 7 43 5 50 -21 76 -27 27 -35 29 -146 36 -109 6 -117 8 -121 28 -12 59
-27 417 -25 612 1 177 -1 232 -15 280 -9 32 -16 67 -16 76 0 9 -9 24 -20 34
-10 9 -24 33 -30 51 -8 22 -20 36 -35 40 -13 3 -31 16 -39 29 -18 27 -94 66
-145 74 -20 3 -102 5 -183 6 -132 0 -148 2 -148 17 0 24 15 30 84 38 93 11
103 11 200 -1z m910 -30 c12 -18 21 -20 54 -14 43 7 61 -5 37 -25 -26 -22
-155 7 -155 35 0 31 43 34 64 4z m278 0 c45 1 49 -2 83 -46 l35 -46 1 -326 c1
-179 4 -425 8 -546 l6 -220 105 -6 c136 -8 189 -32 192 -88 4 -97 -17 -181
-46 -181 -17 0 -19 8 -20 85 -1 28 -8 65 -15 83 -12 29 -18 33 -40 29 -45 -9
-211 9 -226 24 -20 21 -25 146 -27 669 -1 408 -3 477 -16 493 -8 9 -21 17 -27
17 -7 0 -18 7 -25 15 -9 11 -23 13 -51 9 -21 -4 -50 -4 -64 0 -22 6 -24 9 -14
27 9 18 17 20 52 14 23 -3 63 -6 89 -6z m565 -195 c33 -47 53 -64 77 -64 13 0
40 -11 60 -25 42 -29 76 -31 136 -10 53 19 81 19 105 1 29 -21 3 -46 -47 -46
-22 0 -47 -4 -57 -10 -32 -16 -129 -15 -149 2 -9 9 -34 21 -56 26 -21 6 -43
18 -50 27 -6 8 -27 23 -46 33 -41 20 -52 58 -24 79 25 18 31 17 51 -13z
m-2113 -45 c-7 -11 -34 -12 -34 -1 0 14 11 21 26 15 8 -3 11 -9 8 -14z m-42
-40 c-2 -13 -17 -36 -34 -52 -23 -22 -29 -34 -27 -61 2 -22 -3 -42 -14 -54
-15 -17 -17 -49 -17 -318 1 -300 7 -370 39 -408 10 -12 32 -16 96 -16 71 0 84
-3 101 -21 10 -12 29 -25 40 -29 25 -10 31 -40 24 -125 -5 -56 -7 -60 -32 -63
-24 -3 -27 1 -32 32 -3 20 -9 53 -12 74 -9 58 -16 62 -123 62 -123 0 -143 10
-156 75 -5 28 -9 201 -8 385 0 323 1 336 22 375 11 21 21 46 21 55 0 9 11 27
25 40 14 13 25 29 25 36 0 16 41 46 55 41 5 -2 8 -15 7 -28z m-915 -761 c-2
-13 -4 -3 -4 22 0 25 2 35 4 23 2 -13 2 -33 0 -45z m527 -148 c16 -6 26 -17
26 -30 0 -26 -35 -40 -99 -40 -67 0 -112 10 -118 27 -10 25 16 38 90 44 40 3
73 6 74 7 1 1 13 -2 27 -8z m1805 -14 l23 -24 -24 -15 c-33 -22 -224 -28 -220
-7 7 35 43 55 105 61 34 3 69 7 78 7 8 1 26 -9 38 -22z m-871 2 c35 -35 -11
-58 -118 -58 -43 0 -85 3 -94 6 -23 9 -19 39 7 52 31 15 190 15 205 0z m-1458
-244 c0 -127 -3 -193 -10 -189 -6 4 -10 78 -10 189 0 161 3 196 17 196 2 0 3
-88 3 -196z m2168 -43 c25 -22 30 -46 6 -37 -9 3 -29 6 -45 6 -21 0 -29 5 -29
18 0 37 31 43 68 13z m-1448 -5 c0 -22 -19 -30 -35 -16 -22 18 -18 30 10 30
15 0 25 -6 25 -14z m1154 -42 c8 -21 -1 -34 -24 -34 -22 0 -33 23 -17 39 16
16 34 14 41 -5z m976 -40 c11 -12 10 -18 -3 -32 -16 -15 -18 -15 -33 0 -19 18
-12 48 9 48 8 0 20 -7 27 -16z m-201 -80 c-21 -23 -23 -23 -39 -6 -16 16 -15
18 19 39 30 18 37 19 39 6 2 -8 -6 -26 -19 -39z m-699 30 c0 -8 -5 -12 -10 -9
-6 4 -8 11 -5 16 9 14 15 11 15 -7z m1849 -13 c12 -8 12 -12 2 -25 -24 -29
-60 -13 -47 19 6 17 24 19 45 6z m-1461 -13 c-6 -18 -28 -21 -28 -4 0 9 7 16
16 16 9 0 14 -5 12 -12z m138 4 c16 -11 44 -55 44 -69 0 -16 -28 -43 -45 -43
-16 0 -45 50 -45 78 0 17 18 42 30 42 3 0 10 -4 16 -8z m754 -17 c0 -27 -18
-33 -38 -13 -20 20 -14 38 13 38 20 0 25 -5 25 -25z m-446 -20 c14 -13 26 -29
26 -35 0 -13 -37 -50 -49 -50 -25 0 -62 22 -77 46 -17 25 -17 27 7 45 33 25
61 24 93 -6z m551 15 c3 -5 -1 -10 -9 -10 -9 0 -16 5 -16 10 0 6 4 10 9 10 6
0 13 -4 16 -10z m-1065 -43 c0 -25 -32 -62 -43 -50 -13 13 -7 52 11 62 26 16
32 13 32 -12z m-2270 -123 c0 -87 -4 -133 -10 -129 -6 4 -10 60 -10 136 0 79
4 129 10 129 6 0 10 -52 10 -136z m3425 -19 c22 -8 55 -14 73 -15 48 0 38 -26
-22 -58 -45 -23 -51 -24 -75 -11 -28 16 -47 58 -38 83 8 19 11 20 62 1z
m-1928 -31 c-3 -3 -12 -4 -19 -1 -8 3 -5 6 6 6 11 1 17 -2 13 -5z m-1507 -588
c-7 -7 -10 67 -10 230 0 133 3 244 8 248 4 4 8 -99 10 -230 1 -152 -1 -241 -8
-248z m3407 443 c15 -5 45 -22 66 -36 38 -26 39 -26 69 -9 42 25 51 9 22 -41
-21 -34 -32 -43 -64 -48 -55 -9 -71 -1 -107 55 -33 49 -39 70 -26 83 8 9 7 9
40 -4z m-3392 -550 c9 -13 -3 -59 -14 -59 -13 0 -22 30 -16 51 7 21 20 25 30
8z"/>
<path d="M1953 859 c-42 -12 -42 -25 -2 -33 47 -9 49 -8 49 19 0 27 0 27 -47
14z"/>
<path d="M2080 830 c0 -20 5 -30 15 -30 8 0 15 5 15 10 0 6 11 10 25 10 18 0
25 5 25 20 0 17 -7 20 -40 20 -38 0 -40 -2 -40 -30z"/>
<path d="M1375 810 c-15 -6 -9 -9 25 -9 34 0 40 3 25 9 -11 5 -22 9 -25 9 -3
0 -14 -4 -25 -9z"/>
<path d="M2270 810 c-14 -4 -44 -8 -67 -9 -29 -1 -43 -5 -43 -15 0 -22 -40
-66 -61 -66 -13 0 -19 7 -19 23 0 32 -24 62 -43 54 -9 -3 -21 -29 -28 -62 -14
-63 -8 -74 41 -75 45 -1 55 -13 39 -49 -8 -18 -19 -29 -27 -26 -18 7 -62 -16
-62 -32 0 -8 4 -12 9 -9 19 12 71 -6 71 -24 0 -24 68 -33 91 -13 9 7 23 11 31
8 8 -3 35 1 59 9 24 9 52 16 61 16 10 0 22 9 28 21 10 18 5 26 -38 68 -42 40
-52 56 -57 95 -4 25 -5 53 -1 61 8 22 35 18 55 -7 11 -13 24 -19 34 -15 23 9
21 28 -3 34 -11 3 -20 9 -20 14 0 10 -15 10 -50 -1z"/>
<path d="M1930 709 c0 -5 5 -7 10 -4 6 3 10 8 10 11 0 2 -4 4 -10 4 -5 0 -10
-5 -10 -11z"/>
<path d="M3840 492 c0 -14 45 -52 63 -52 27 0 31 22 7 42 -22 18 -70 25 -70
10z"/>
<path d="M3100 429 c-10 -17 -9 -23 1 -30 24 -15 44 -5 44 21 0 32 -30 38 -45
9z"/>
<path d="M2256 425 c-9 -24 -8 -25 15 -25 14 0 19 5 17 17 -4 23 -24 27 -32 8z"/>
<path d="M1980 415 c0 -8 5 -15 10 -15 6 0 10 7 10 15 0 8 -4 15 -10 15 -5 0
-10 -7 -10 -15z"/>
<path d="M4070 350 c-14 -43 -10 -56 15 -47 9 4 15 19 15 41 0 49 -15 52 -30
6z"/>
<path d="M3936 365 c-4 -12 -1 -16 11 -13 18 3 21 20 5 26 -5 1 -12 -4 -16
-13z"/>
</g>
</svg>
